<?xml version="1.0" ?><svg viewBox="0 0 512 512" xmlns="http://www.w3.org/2000/svg"><title/><g data-name="/ OUTLINE" id="_OUTLINE"><path d="M480,448V312a24.0275,24.0275,0,0,0-24-24h-8V110.62744a23.84254,23.84254,0,0,0-7.0293-16.9707l-70.627-70.62695A23.84385,23.84385,0,0,0,353.37305,16H88A24.0275,24.0275,0,0,0,64,40V472a24.0275,24.0275,0,0,0,24,24H472a24.02718,24.02718,0,0,0,24-24V448ZM456,304a8.00917,8.00917,0,0,1,8,8V448H288V312a8.00917,8.00917,0,0,1,8-8ZM368,43.314,420.686,96H376a8.00917,8.00917,0,0,1-8-8ZM120,480H88a8.00917,8.00917,0,0,1-8-8V40a8.00917,8.00917,0,0,1,8-8H352V88a24.02718,24.02718,0,0,0,24,24h56V288H296a24.02677,24.02677,0,0,0-21.56348,13.4754L216,253.66357,120,332.209Zm56,0H136V339.791l80-65.45459,56,45.81774V448H256V368H176Zm16,0V384h48v88a23.88212,23.88212,0,0,0,1.37622,8Zm288-8a8.00917,8.00917,0,0,1-8,8H264a8.00917,8.00917,0,0,1-8-8v-8H480Z"/><path d="M376,432a56,56,0,1,0-56-56A56.06322,56.06322,0,0,0,376,432Zm0-96a40,40,0,1,1-40,40A40.04552,40.04552,0,0,1,376,336Z"/><polygon points="384 379.313 384 352 368 352 368 372.687 354.343 386.343 365.657 397.657 384 379.313"/><rect height="16" width="144" x="184" y="56"/><rect height="16" width="24" x="104" y="144"/><rect height="16" width="24" x="104" y="192"/><rect height="16" width="24" x="104" y="240"/><rect height="16" width="192" x="144" y="96"/><rect height="16" width="264" x="144" y="144"/><rect height="16" width="264" x="144" y="192"/><rect height="16" width="48" x="144" y="240"/><rect height="16" width="168" x="240" y="240"/><rect height="16" width="24" x="104" y="96"/></g></svg>