<?xml version="1.0" ?><svg data-name="Layer 10" id="Layer_10" viewBox="0 0 32 32" xmlns="http://www.w3.org/2000/svg"><title/><path d="M28.55,1.46H3.45a2,2,0,0,0-2,2v17.1a2,2,0,0,0,2,1.95H14v6H9.62a0.5,0.5,0,0,0,0,1H22.38a0.5,0.5,0,1,0,0-1H18v-6H28.55a2,2,0,0,0,2-1.95V3.41A2,2,0,0,0,28.55,1.46Zm-25.1,1h25.1a1,1,0,0,1,1,1V17.67H2.5V3.41A1,1,0,0,1,3.45,2.46ZM17,28.5H15v-6H17v6Zm11.51-7H3.45a1,1,0,0,1-1-.95V18.67h27v1.84A1,1,0,0,1,28.55,21.46Z"/><path d="M16,17a6.87,6.87,0,1,0-6.87-6.87A6.88,6.88,0,0,0,16,17ZM16,4.29a5.87,5.87,0,1,1-5.87,5.87A5.87,5.87,0,0,1,16,4.29Z"/><path d="M18,12.45a0.5,0.5,0,1,0,.64-0.76L16.5,9.92V6a0.5,0.5,0,1,0-1,0v4.15a0.5,0.5,0,0,0,.18.38Z"/></svg>