<?xml version="1.0" ?><svg id="Layer_1" style="enable-background:new 0 0 256 256;" version="1.1" viewBox="0 0 256 256" xml:space="preserve" xmlns="http://www.w3.org/2000/svg" xmlns:xlink="http://www.w3.org/1999/xlink"><g><path d="M108.3,53.7c2.2,6.1,5.6,10.5,10.1,13c2.9,1.6,6.2,2.5,9.4,2.5c0.1,0,0.2,0,0.4,0c3.3,0,6.6-0.9,9.5-2.5   c4.5-2.6,7.9-6.9,10.1-13c1.8-4.9,4-11.4,4.4-18.2c0.5-7.4-1.8-14.4-6.3-19.1c-4.4-4.6-10.8-7.1-17.7-6.8   c-7.1-0.2-13.5,2.2-17.9,6.8c-4.5,4.7-6.9,11.7-6.3,19.1C104.3,42.3,106.5,48.8,108.3,53.7z M117,22.9c2.6-2.7,6.4-4.1,11.1-3.9   c4.4-0.2,8.3,1.3,10.8,3.9c2.7,2.8,4,7.1,3.7,11.9c-0.4,5.6-2.3,11.3-3.9,15.6c-1.4,3.9-3.4,6.6-5.9,8c-1.5,0.8-3.3,1.2-5,1.3   c-1.7,0-3.4-0.4-4.9-1.3c-2.5-1.4-4.5-4.1-5.9-8l0,0c-1.6-4.3-3.5-10-3.9-15.6C113,30,114.3,25.7,117,22.9z"/><path d="M173.4,95c-1.2-6.7-5.7-12.2-12-14.7c-7.3-3-17.4-7.4-17.4-7.4l-2.5-1.1l-2.2,1.6c0,0-0.9,0.7-1.6,1.1   c-1.7,1.1-3.5,1.8-5.4,2.3c-1.1,0.3-2.2,0.4-3.1,0.4l-2.4,0c-1,0-2-0.2-3.2-0.5c-1.9-0.4-3.7-1.2-5.5-2.4c-0.5-0.3-1.4-1-1.4-1   l-2.5-1.8l-2.7,1.5c-0.1,0-0.4,0.2-0.8,0.4c-2.8,1.3-10.1,4.3-16.1,6.8c-6.3,2.6-10.7,8.1-11.9,14.7l-3.5,18.4h97.8L173.4,95z    M90.5,103.9l1.4-7.2c0.6-3.5,3-6.4,6.2-7.7c2.7-1.1,11-4.5,15.3-6.4c2.6,1.6,5.3,2.7,8.1,3.4c1.7,0.4,3.4,0.6,5.3,0.7l2.7,0   c1.6-0.1,3.3-0.3,5-0.7c2.9-0.7,5.7-1.8,8.1-3.4c0,0,0.1,0,0.1-0.1c3.5,1.5,10,4.3,15.2,6.4c3.3,1.4,5.6,4.2,6.3,7.7l1.4,7.2H90.5z   "/><path d="M36.3,186.8c2.2,6.1,5.6,10.5,10.1,13c2.9,1.6,6.2,2.5,9.4,2.5c0.1,0,0.2,0,0.3,0c3.3,0,6.6-0.9,9.5-2.5   c4.5-2.6,7.9-6.9,10.1-13c1.8-4.9,4-11.4,4.4-18.2c0.5-7.4-1.8-14.4-6.3-19.1c-4.4-4.6-10.8-7.1-17.7-6.8   c-7.1-0.3-13.5,2.2-17.9,6.8c-4.5,4.7-6.9,11.7-6.3,19.1C32.4,175.4,34.5,181.9,36.3,186.8z M45,156c2.4-2.6,6.1-3.9,10.5-3.9   c0.2,0,0.4,0,0.6,0c2.6-0.1,7.4,0.3,10.8,3.9c2.7,2.8,4,7.1,3.7,11.9c-0.4,5.7-2.3,11.3-3.9,15.6c-1.4,3.9-3.4,6.6-5.9,8   c-1.5,0.8-3.2,1.2-5,1.3c-1.7,0-3.4-0.4-4.9-1.3c-2.5-1.4-4.5-4.1-5.9-8l0,0c-1.6-4.3-3.5-10-3.9-15.6C41,163.1,42.3,158.8,45,156z   "/><path d="M89.5,213.4L89.5,213.4c-7.3-3-17.4-7.4-17.4-7.4l-2.5-1.1l-2.2,1.7c0,0-0.9,0.7-1.6,1.1c-1.7,1.1-3.5,1.8-5.4,2.3   c-1.2,0.3-2.2,0.4-3.1,0.4c-0.3,0-0.6,0-1,0l-0.3,0l-0.3,0c-0.3,0-0.6,0-0.9,0c-1,0-2-0.2-3.2-0.5c-1.9-0.4-3.7-1.2-5.5-2.4   c-0.5-0.3-1.4-1-1.5-1l-2.2-1.6l-2.5,1.1c0,0-10.1,4.4-17.4,7.4c-6.3,2.6-10.7,8.1-12,14.7l-3.5,18.4h97.8l-3.5-18.4   C100.2,221.4,95.8,215.9,89.5,213.4z M18.5,237l1.4-7.2c0.6-3.5,3-6.4,6.2-7.7c5.2-2.1,11.7-4.9,15.2-6.4c2.6,1.6,5.3,2.8,8.2,3.4   c1.8,0.4,3.4,0.6,5.3,0.7c0.4,0,0.8,0,1.2,0c0.4,0,0.8,0,1.5,0c1.6,0,3.3-0.3,5-0.7c2.9-0.7,5.7-1.8,8.1-3.4c0,0,0.1,0,0.1-0.1   c3.5,1.5,10,4.3,15.2,6.4c3.3,1.3,5.6,4.2,6.3,7.7l1.4,7.2H18.5z"/><path d="M175.8,168.5c0.5,6.8,2.6,13.3,4.4,18.2c2.2,6.1,5.6,10.5,10.1,13c2.9,1.6,6.2,2.5,9.4,2.5c0.1,0,0.1,0,0.2,0   c3.3,0,6.7-0.8,9.7-2.5c4.5-2.6,7.9-6.9,10.1-13c1.8-4.9,4-11.4,4.4-18.2c0.5-7.4-1.8-14.4-6.3-19.1c-4.4-4.6-10.8-7.1-17.7-6.8   c-7.1-0.3-13.5,2.2-17.9,6.8C177.6,154.2,175.3,161.1,175.8,168.5z M189,156c3.5-3.6,8.3-4,11.1-3.9c4.4-0.1,8.3,1.3,10.8,3.9   c2.7,2.8,4,7.1,3.7,11.9c-0.4,5.7-2.3,11.3-3.9,15.6c-1.4,3.9-3.4,6.6-5.9,8c-1.5,0.8-3.3,1.2-5,1.3c-1.7,0-3.4-0.4-4.9-1.3   c-2.5-1.4-4.5-4.1-5.9-8l0,0c-1.6-4.3-3.5-10-3.9-15.6C184.9,163.1,186.3,158.8,189,156z"/><path d="M245.4,228.1c-1.2-6.6-5.7-12.2-12-14.7c-7.3-3-17.4-7.4-17.4-7.4l-2.5-1.1l-2.2,1.6c0,0-0.9,0.7-1.6,1.1   c-1.7,1.1-3.5,1.8-5.4,2.3c-1.2,0.3-2.2,0.4-3.1,0.4c-0.3,0-0.6,0-1,0l-0.3,0l-0.3,0c-0.3,0-0.6,0-0.9,0c-1,0-2-0.2-3.2-0.5   c-1.9-0.4-3.7-1.2-5.5-2.4c-0.5-0.3-1.4-1-1.5-1l-2.2-1.6l-2.5,1.1c0,0-10.1,4.4-17.4,7.4c-6.3,2.6-10.7,8.1-12,14.7l-3.5,18.4   h97.8L245.4,228.1z M162.5,237l1.4-7.2c0.6-3.5,3-6.4,6.2-7.7c5.2-2.1,11.7-4.9,15.2-6.4c2.6,1.6,5.3,2.8,8.2,3.4   c1.8,0.4,3.4,0.6,5.3,0.7c0.4,0,0.8,0,1.2,0c0.4,0,0.9,0,1.5,0c1.6,0,3.3-0.3,5-0.7c2.9-0.7,5.7-1.8,8.1-3.4c0,0,0.1,0,0.1-0.1   c3.5,1.5,10,4.3,15.2,6.4c3.3,1.4,5.6,4.2,6.3,7.7l1.4,7.2H162.5z"/><path d="M153.1,186.7c1.6,0,3.1-0.8,4-2.2c1.4-2.2,0.7-5.1-1.5-6.5l-22.8-14.3l-0.2-27.2c0-2.6-2.1-4.7-4.7-4.7c0,0,0,0,0,0   c-2.6,0-4.7,2.1-4.7,4.8l0.2,26.9l-23.1,14.4c-2.2,1.4-2.9,4.3-1.5,6.5c0.9,1.4,2.4,2.2,4,2.2c0.9,0,1.7-0.2,2.5-0.7l22.7-14.1   l22.6,14.2C151.4,186.4,152.3,186.7,153.1,186.7z"/></g></svg>